<svg xmlns="http://www.w3.org/2000/svg" viewBox="0 0 200 428" width="200" height="428"><path d="M102.1 227.1L102.1 244.8L104.8 245.2L107.4 247.7L112.6 246.8L114.2 243.7L112.7 244.3L113.4 242.8L111.9 241.6L111.1 239.7L112.4 238.2L112.9 233.3L114.4 233.9L115.5 228.9L113.2 226.9L115.3 228.2L112.7 226.2L112.4 224.3L113.3 222.4L112.2 220.4L114.4 220.6L115.4 222.0L117.6 222.7L124.6 223.0L138.0 220.9L152.7 216.5L160.4 211.8L161.1 208.1L164.3 204.3L169.1 196.6L169.3 192.4L168.6 188.8L166.6 189.7L163.5 186.9L162.3 184.5L162.5 181.3L164.7 177.7L164.0 176.0L160.8 172.2L152.8 167.7L151.3 165.9L151.5 163.9L150.3 163.0L152.2 161.7L151.5 159.4L149.6 159.9L145.7 157.1L143.6 156.7L142.1 156.0L140.8 154.9L133.1 149.8L131.2 154.5L129.3 153.9L127.0 153.7L126.4 155.2L118.9 164.1L107.5 164.1L102.6 164.1L102.2 172.0L102.1 227.1ZM44.7 79.9L47.5 80.2L51.6 79.6L51.6 82.8L55.2 84.8L57.8 87.7L64.9 87.2L66.2 86.2L70.2 88.0L71.0 89.1L71.4 90.9L72.6 92.3L74.8 95.2L78.1 98.8L78.7 102.0L82.0 110.1L78.3 122.3L78.4 132.3L82.9 134.6L84.1 138.0L86.5 137.5L87.2 141.7L85.9 145.9L85.7 148.0L84.7 149.2L85.1 172.0L85.1 184.7L69.8 184.8L53.3 184.8L53.5 204.6L51.7 204.4L48.4 202.2L46.1 202.1L45.4 200.5L40.7 199.7L39.0 198.9L37.8 197.5L35.3 192.6L33.4 189.5L32.4 187.2L32.2 185.4L31.8 183.1L31.8 180.4L31.9 178.5L31.3 177.0L30.2 175.3L32.1 174.1L33.2 169.4L35.3 164.6L36.9 162.9L36.9 156.4L37.2 153.5L38.1 151.6L37.3 149.7L35.9 150.4L34.9 148.7L36.0 145.0L34.4 143.2L34.6 141.1L33.4 137.8L32.7 136.5L32.1 134.3L33.6 133.1L31.2 131.5L30.1 128.3L30.3 124.9L31.2 122.3L32.6 121.6L33.8 114.9L34.3 112.9L36.4 113.1L37.5 110.9L36.2 109.2L36.8 107.5L36.7 104.7L35.6 99.4L38.0 96.8L38.0 94.8L38.7 92.9L39.3 90.0L39.5 87.9L41.1 85.3L43.0 82.8L44.7 79.9ZM133.1 149.8L139.6 155.1L142.1 156.0L143.6 156.7L145.7 157.1L149.6 159.9L151.5 159.4L151.4 157.5L150.5 155.5L150.7 152.8L151.9 150.3L151.8 147.7L154.5 147.2L153.9 142.2L154.0 139.5L155.0 137.4L154.1 135.7L154.5 134.0L154.0 132.4L155.5 131.2L156.2 128.7L155.2 127.1L157.4 121.8L157.9 119.9L157.9 117.8L156.1 116.0L155.3 113.7L153.7 111.5L150.3 110.3L147.1 111.2L143.6 112.7L139.4 112.6L140.0 108.9L139.3 106.4L140.5 98.9L144.0 95.8L145.1 90.8L145.1 85.1L146.8 84.0L118.9 82.8L115.1 110.3L113.1 105.5L102.2 105.4L101.3 103.9L97.8 103.8L95.7 102.5L93.5 101.0L87.2 102.7L86.6 106.8L84.6 109.1L82.0 110.1L78.3 122.3L78.4 132.3L82.9 134.6L84.1 138.0L86.5 137.5L87.2 141.7L85.9 145.9L85.7 148.0L84.7 149.2L85.1 172.0L102.2 172.0L102.3 164.6L107.5 164.1L118.9 164.1L126.4 155.2L127.0 153.7L129.3 153.9L131.2 154.5L132.6 151.0ZM112.6 12.4L113.5 14.1L116.1 19.1L118.2 21.1L124.9 26.8L125.9 29.4L128.1 30.3L132.7 32.1L135.7 32.0L141.4 36.4L142.6 38.1L147.9 41.7L151.5 42.8L152.8 44.5L156.2 45.5L159.3 48.3L160.0 49.7L160.2 51.8L158.5 53.2L157.8 54.5L156.9 56.9L155.1 59.0L154.3 60.8L153.9 62.7L154.2 65.6L153.5 67.0L152.8 68.5L151.2 69.3L150.5 70.6L149.5 72.1L150.0 74.1L155.8 73.4L160.9 75.4L162.9 75.6L164.9 76.3L167.0 75.4L168.3 76.5L169.6 75.8L172.0 77.6L173.0 76.2L174.5 74.1L176.3 74.3L178.5 75.7L180.1 74.3L180.0 72.2L181.4 71.3L184.8 69.3L186.2 67.4L186.8 65.9L188.1 64.1L189.0 62.8L189.4 60.4L189.4 57.1L190.1 55.2L189.6 53.4L191.3 52.6L194.1 52.0L196.3 52.9L197.6 54.7L197.7 56.9L199.4 60.7L198.8 62.1L198.3 66.4L198.9 68.9L197.6 72.2L195.1 73.7L193.1 75.5L191.3 76.1L189.1 77.1L187.0 78.0L186.1 80.1L182.9 81.7L181.6 83.8L179.8 84.7L178.3 85.8L179.4 87.0L177.6 87.2L177.0 88.8L175.6 90.6L173.1 92.8L172.1 95.0L169.8 97.6L169.1 99.8L165.8 104.3L163.1 106.0L162.7 108.1L159.9 110.6L159.5 112.5L157.1 115.3L157.9 117.8L156.1 116.0L155.3 113.7L153.7 111.5L150.3 110.3L147.1 111.2L143.6 112.7L139.4 112.6L140.0 108.9L139.3 106.4L140.5 98.9L144.0 95.8L145.1 90.8L145.1 85.1L146.8 84.0L118.9 82.8L118.9 59.2L118.5 53.0L102.0 53.0L112.7 37.0L112.6 33.4L112.6 12.4ZM84.1 7.6L90.1 9.1L91.7 13.3L92.3 15.7L92.7 17.5L93.5 13.3L96.7 6.4L98.6 7.0L107.8 6.4L109.5 9.4L112.6 12.4L112.6 33.4L112.7 37.0L102.0 53.0L118.5 53.0L118.9 59.2L118.9 82.8L115.1 110.3L113.1 105.5L102.2 105.4L101.3 103.9L97.8 103.8L95.7 102.5L93.5 101.0L87.2 102.7L86.6 106.8L84.6 109.1L82.0 110.1L78.7 102.0L78.1 98.8L74.8 95.2L72.4 93.7L71.4 90.9L71.0 89.1L70.2 88.0L66.2 86.2L64.9 87.2L59.0 87.2L56.6 84.4L51.6 82.8L51.6 79.6L47.5 80.2L44.7 79.9L45.8 75.9L47.9 71.6L50.1 72.1L52.7 70.6L52.9 68.8L50.0 63.2L50.2 61.2L51.9 59.2L49.9 50.9L50.5 48.3L51.0 46.6L51.3 43.4L50.2 42.2L51.0 39.5L52.0 38.2L53.6 36.8L62.4 32.2L63.5 28.5L65.9 19.1L64.1 16.8L65.7 14.5L68.1 11.8L68.6 9.3L72.9 7.4L73.6 3.7L75.5 5.3L78.2 7.7L84.1 7.6ZM31.7 186.4L32.4 189.4L34.2 192.0L38.1 195.8L39.0 198.9L40.7 199.7L44.5 199.8L46.1 202.1L48.4 202.2L50.9 203.2L53.5 204.6L53.3 184.8L69.8 184.8L85.1 184.7L85.1 172.0L102.2 172.0L102.1 227.1L102.1 244.8L104.8 245.2L107.4 247.7L105.0 250.4L98.2 250.5L95.4 249.0L89.6 246.5L86.9 246.2L88.6 245.9L86.2 245.0L84.8 246.4L84.2 248.1L85.0 252.7L86.1 255.2L85.5 261.3L87.4 263.7L91.2 264.5L90.0 266.6L95.0 266.7L95.3 264.7L92.6 264.3L98.3 262.2L100.0 265.0L100.2 268.8L99.8 270.8L98.6 271.7L94.9 272.5L93.5 271.1L94.0 269.3L91.6 267.7L89.6 267.9L86.5 269.6L86.0 271.2L89.5 273.0L93.0 273.7L86.6 277.0L85.6 279.0L82.9 282.1L82.8 284.6L83.3 286.2L83.9 288.5L83.8 291.4L82.7 292.6L81.4 294.0L79.6 295.2L78.7 297.0L80.8 298.6L79.1 300.2L77.6 299.5L74.0 299.3L71.0 300.6L66.7 302.7L62.7 307.3L62.4 309.5L60.2 312.2L59.8 314.3L60.6 317.3L61.8 319.4L64.7 321.2L67.8 324.7L69.7 325.6L76.2 325.8L78.6 327.5L78.6 331.4L77.5 334.4L73.3 335.9L77.0 334.7L78.4 337.0L76.3 338.3L74.9 339.3L72.8 341.0L69.5 343.2L67.3 345.2L64.9 346.3L64.0 348.1L60.4 350.6L59.7 352.1L58.7 353.9L57.7 355.3L59.6 353.6L59.0 357.2L58.7 360.4L57.1 363.1L54.3 364.6L49.5 360.1L50.2 362.2L45.9 363.3L50.2 362.8L51.1 364.2L52.5 365.0L47.2 367.4L45.2 370.3L44.5 372.6L44.6 374.7L41.9 377.0L44.3 375.6L46.4 383.0L44.5 383.6L42.2 383.0L39.8 383.9L43.0 383.5L44.0 384.6L46.3 383.8L49.1 388.7L52.3 392.5L43.9 390.4L41.1 390.3L36.5 388.7L16.3 388.3L13.0 384.7L11.5 382.9L12.8 379.9L12.0 377.5L13.3 375.4L12.5 372.6L10.9 370.8L9.4 371.7L5.5 372.8L4.1 371.3L3.0 367.0L0.6 364.6L0.3 362.3L1.3 360.1L4.0 359.1L5.4 357.5L4.8 355.4L4.3 353.6L5.9 350.3L8.2 349.6L10.1 347.8L9.9 344.2L13.0 342.1L12.6 338.6L10.6 336.6L12.6 332.6L12.4 330.7L14.3 330.1L15.6 328.6L17.4 327.4L15.9 325.7L16.5 322.6L19.1 321.0L19.2 319.0L18.4 315.3L16.9 314.1L19.5 312.2L18.4 310.3L18.3 306.7L21.1 305.8L22.3 304.0L20.1 299.2L15.3 298.2L21.0 296.2L23.0 296.8L23.7 294.8L24.8 293.5L23.9 292.2L17.4 291.5L17.4 288.1L19.4 285.8L18.4 284.5L18.9 282.7L17.3 280.8L16.4 279.6L17.0 278.1L18.6 276.4L15.5 275.3L14.5 273.9L14.9 272.2L14.6 268.3L15.6 267.4L14.7 264.9L15.9 262.8L18.5 262.5L18.1 259.5L16.7 256.8L17.0 253.2L17.3 248.6L16.4 244.9L17.5 243.6L18.0 241.0L19.3 239.9L17.8 238.4L19.2 237.0L19.8 234.6L18.9 232.2L19.6 230.6L21.9 227.0L22.0 221.8L27.3 219.1L27.7 217.4L26.3 215.7L25.8 212.1L24.1 205.9L24.8 203.4L23.9 201.2L25.1 198.8L23.9 197.2L24.5 193.5L25.7 190.9L27.1 189.9L29.0 188.1L30.2 186.6ZM49.6 424.1L49.7 396.8L52.9 400.3L53.7 402.7L52.5 401.6L50.8 402.9L51.5 405.2L54.9 405.8L56.2 409.1L58.9 411.6L60.3 413.0L64.6 415.7L68.3 417.3L71.2 420.1L77.6 422.4L84.6 422.4L82.6 425.9L79.3 426.5L76.3 425.6L72.8 426.8L71.5 427.5L65.7 425.7L56.7 425.1L53.0 424.2L50.8 425.0L49.6 424.1Z" fill="#6CACE4" stroke="#6CACE4" stroke-width="0.8" stroke-linejoin="round"></path></svg>