<svg xmlns="http://www.w3.org/2000/svg" viewBox="0 0 640 360" width="640" height="360" role="img" aria-label="bancos"><rect width="640" height="360" fill="#E3EFF9"/><circle cx="320" cy="180" r="150" fill="#D3E6F6"/><path d="M170 128 L320 52 L470 128Z" fill="#13202E"/><circle cx="320" cy="104" r="20" fill="#E8B923" stroke="#A97F07" stroke-width="4"/><rect x="178" y="128" width="284" height="18" fill="#13202E"/><rect x="196" y="150" width="28" height="112" fill="#FFFFFF"/><rect x="192" y="150" width="36" height="8" fill="#FFFFFF"/><rect x="252" y="150" width="28" height="112" fill="#FFFFFF"/><rect x="248" y="150" width="36" height="8" fill="#FFFFFF"/><rect x="308" y="150" width="28" height="112" fill="#FFFFFF"/><rect x="304" y="150" width="36" height="8" fill="#FFFFFF"/><rect x="364" y="150" width="28" height="112" fill="#FFFFFF"/><rect x="360" y="150" width="36" height="8" fill="#FFFFFF"/><rect x="420" y="150" width="28" height="112" fill="#FFFFFF"/><rect x="416" y="150" width="36" height="8" fill="#FFFFFF"/><rect x="166" y="262" width="308" height="14" fill="#13202E"/><rect x="152" y="276" width="336" height="14" fill="#26364A"/><rect x="138" y="290" width="364" height="14" fill="#13202E"/><circle cx="80" cy="250" r="54" fill="#7F8B99"/><circle cx="80" cy="250" r="40" fill="#26364A"/><path d="M80 250 L110.0 250.0" stroke="#FFFFFF" stroke-width="7" stroke-linecap="round"/><path d="M80 250 L65.0 276.0" stroke="#FFFFFF" stroke-width="7" stroke-linecap="round"/><path d="M80 250 L65.0 224.0" stroke="#FFFFFF" stroke-width="7" stroke-linecap="round"/><circle cx="80" cy="250" r="9" fill="#E8B923"/><path d="M520 298 L528 272 L572 272 L580 298 Z" fill="#E8B923" stroke="#A97F07" stroke-width="3" stroke-linejoin="round"/><path d="M580 298 L588 272 L632 272 L640 298 Z" fill="#E8B923" stroke="#A97F07" stroke-width="3" stroke-linejoin="round"/><path d="M550 270 L558 244 L602 244 L610 270 Z" fill="#E8B923" stroke="#A97F07" stroke-width="3" stroke-linejoin="round"/><rect x="0" y="304" width="640" height="56" fill="#13202E"/></svg>